{"title":"Hunger Games - Beginning of a Rebellion Part 1 - Music of PANEM","uid":7624278,"size":564525546,"categoryP":"audio","categoryS":"music","magnet":"?xt=urn:btih:3f916f04b2051b26ebe5f51465778fa32481813d&amp;dn=Hunger+Games+-+Beginning+of+a+Rebellion+Part+1+-+Music+of+PANEM&amp;tr=udp%3A%2F%2Ftracker.openbittorrent.com%3A80&amp;tr=udp%3A%2F%2Fopen.demonii.com%3A1337&amp;tr=udp%3A%2F%2Ftracker.coppersurfer.tk%3A6969&amp;tr=udp%3A%2F%2Fexodus.desync.com%3A6969","seeders":1,"leechers":0,"uploader":"orgacyborg","files":1,"time":1347399521,"description":"Hunger Games - Beginning of a Rebellion Part 1 - Music of PANEM!\n\n\nGeneral\nComplete name                  : D:jDownloadEDHunger Games - Beginning of a Rebellion Part 1 - SoundtrackMusic of Panem_ Beginning of a Rebellion Part 1 - Hunger Games Fan Made Soundtrack.mp4\nFormat                         : MPEG-4\nFormat profile                 : Base Media / Version 2\nCodec ID                       : mp42\nFile size                      : 538 MiB\nDuration                       : 1h 5mn\nOverall bit rate mode          : Variable\nOverall bit rate               : 1 150 Kbps\n\nVideo\nID                             : 1\nFormat                         : AVC\nFormat/Info                    : Advanced Video Codec\nFormat profile                 : &lt;a class=&quot;__cf_email__&quot; href=&quot;/cdn-cgi/l/email-protection&quot; data-cfemail=&quot;2e664749466e621d001f&quot;&gt;[email&amp;#160;protected]&lt;/a&gt;&lt;script cf-hash='f9e31' type=&quot;text/javascript&quot;&gt;\n/* &lt;![CDATA[ */!function(){try{var t=&quot;currentScript&quot;in document?document.currentScript:function(){for(var t=document.getElementsByTagName(&quot;script&quot;),e=t.length;e--;)if(t[e].getAttribute(&quot;cf-hash&quot;))return t[e]}();if(t&amp;&amp;t.previousSibling){var e,r,n,i,c=t.previousSibling,a=c.getAttribute(&quot;data-cfemail&quot;);if(a){for(e=&quot;&quot;,r=parseInt(a.substr(0,2),16),n=2;a.length-n;n+=2)i=parseInt(a.substr(n,2),16)^r,e+=String.fromCharCode(i);e=document.createTextNode(e),c.parentNode.replaceChild(e,c)}}}catch(u){}}();/* ]]&gt; */&lt;/script&gt;\nFormat settings, CABAC         : Yes\nFormat settings, ReFrames      : 1 frame\nFormat settings, GOP           : M=1, N=30\nCodec ID                       : avc1\nCodec ID/Info                  : Advanced Video Coding\nDuration                       : 1h 5mn\nBit rate                       : 993 Kbps\nMaximum bit rate               : 4 188 Kbps\nWidth                          : 1 280 pixels\nHeight                         : 720 pixels\nDisplay aspect ratio           : 16:9\nFrame rate mode                : Variable\nFrame rate                     : 23.976 fps\nMinimum frame rate             : 23.810 fps\nMaximum frame rate             : 24.390 fps\nColor space                    : YUV\nChroma subsampling             : 4:2:0\nBit depth                      : 8 bits\nScan type                      : Progressive\nBits/(Pixel*Frame)             : 0.045\nStream size                    : 465 MiB (86%)\n\nAudio\nID                             : 2\nFormat                         : AAC\nFormat/Info                    : Advanced Audio Codec\nFormat profile                 : LC\nCodec ID                       : 40\nDuration                       : 1h 5mn\nBit rate mode                  : Variable\nBit rate                       : 152 Kbps\nMaximum bit rate               : 251 Kbps\nChannel(s)                     : 2 channels\nChannel positions              : Front: L R\nSampling rate                  : 44.1 KHz\nCompression mode               : Lossy\nStream size                    : 71.1 MiB (13%)\n","torrent":{"xt":"urn:btih:3f916f04b2051b26ebe5f51465778fa32481813d","amp;dn":"Hunger+Games+-+Beginning+of+a+Rebellion+Part+1+-+Music+of+PANEM","amp;tr":["udp%3A%2F%2Ftracker.openbittorrent.com%3A80","udp%3A%2F%2Fopen.demonii.com%3A1337","udp%3A%2F%2Ftracker.coppersurfer.tk%3A6969","udp%3A%2F%2Fexodus.desync.com%3A6969"],"infoHash":"3f916f04b2051b26ebe5f51465778fa32481813d","infoHashBuffer":{"type":"Buffer","data":[63,145,111,4,178,5,27,38,235,229,245,20,101,119,143,163,36,129,129,61]},"announce":[],"urlList":[]}}